<svg width="392" height="368" viewBox="0 0 392 368" fill="none" xmlns="http://www.w3.org/2000/svg">
<g filter="url(#filter0_d_805_3)">
<rect x="61.2961" y="17.6093" width="270" height="296" rx="96" fill="#EDBD8F" stroke="black" stroke-width="10"/>
<path d="M170.33 279.405L219.762 276.814" stroke="black" stroke-width="8"/>
<path d="M380.296 129.138C377.314 125.516 369.571 117.06 358.796 117.638C344.302 118.415 326.351 126.114 326.296 126.138V216.138C326.378 216.162 354.816 224.625 368.296 216.138C376.796 210.786 381.296 198.637 384.796 176.138C387.561 158.365 390.965 142.093 380.296 129.138ZM352 194.609C355.866 194.609 359 197.743 359 201.609C359 205.475 355.866 208.609 352 208.609C348.134 208.609 345 205.475 345 201.609C345 197.743 348.134 194.61 352 194.609Z" fill="#EDBD8F"/>
<path d="M359.441 122.615L359.064 122.631C352.451 122.986 344.81 124.954 338.632 126.939C335.676 127.889 333.13 128.819 331.296 129.521V212.275C331.548 212.335 331.81 212.398 332.083 212.461C334.845 213.097 338.649 213.857 342.833 214.361C347.035 214.868 351.494 215.1 355.604 214.742C359.506 214.402 362.763 213.556 365.164 212.187L365.632 211.906C368.692 209.98 371.394 206.633 373.783 200.7C376.042 195.091 377.881 187.522 379.529 177.423L379.856 175.369C381.275 166.244 382.712 158.282 382.584 150.918C382.465 143.992 380.948 138.055 376.842 132.82L376.436 132.316C373.478 128.725 367.331 122.399 359.441 122.615Z" stroke="black" stroke-width="10"/>
<path d="M337.296 169.637C341.696 169.237 357.129 161.471 364.296 157.637" stroke="black" stroke-width="5"/>
<path d="M343.183 163.515C344.805 167.624 356.601 180.248 362.296 186.046" stroke="black" stroke-width="5"/>
<mask id="path-7-inside-1_805_3" fill="white">
<path d="M353 190.609C360.18 190.609 366 196.43 366 203.609C366 210.789 360.18 216.609 353 216.609C345.82 216.609 340 210.789 340 203.609C340 196.43 345.82 190.609 353 190.609ZM353 198.609C350.239 198.609 348 200.848 348 203.609C348 206.371 350.239 208.609 353 208.609C355.761 208.609 358 206.371 358 203.609C358 200.848 355.761 198.609 353 198.609Z"/>
</mask>
<path d="M353 190.609C360.18 190.609 366 196.43 366 203.609C366 210.789 360.18 216.609 353 216.609C345.82 216.609 340 210.789 340 203.609C340 196.43 345.82 190.609 353 190.609ZM353 198.609C350.239 198.609 348 200.848 348 203.609C348 206.371 350.239 208.609 353 208.609C355.761 208.609 358 206.371 358 203.609C358 200.848 355.761 198.609 353 198.609Z" fill="#D9D9D9"/>
<path d="M353 190.609V191.609C359.627 191.609 365 196.982 365 203.609H366H367C367 195.877 360.732 189.609 353 189.609V190.609ZM366 203.609H365C365 210.237 359.627 215.609 353 215.609V216.609V217.609C360.732 217.609 367 211.341 367 203.609H366ZM353 216.609V215.609C346.373 215.609 341 210.237 341 203.609H340H339C339 211.341 345.268 217.609 353 217.609V216.609ZM340 203.609H341C341 196.982 346.373 191.609 353 191.609V190.609V189.609C345.268 189.609 339 195.877 339 203.609H340ZM353 198.609V197.609C349.686 197.609 347 200.296 347 203.609H348H349C349 201.4 350.791 199.609 353 199.609V198.609ZM348 203.609H347C347 206.923 349.686 209.609 353 209.609V208.609V207.609C350.791 207.609 349 205.818 349 203.609H348ZM353 208.609V209.609C356.314 209.609 359 206.923 359 203.609H358H357C357 205.818 355.209 207.609 353 207.609V208.609ZM358 203.609H359C359 200.296 356.314 197.609 353 197.609V198.609V199.609C355.209 199.609 357 201.4 357 203.609H358Z" fill="black" mask="url(#path-7-inside-1_805_3)"/>
<path d="M32.1514 122.087L32.5283 122.103C39.1414 122.457 46.7819 124.426 52.96 126.411C55.9164 127.361 58.4623 128.29 60.2959 128.993V211.747C60.0447 211.807 59.7827 211.87 59.5098 211.933C56.7468 212.569 52.9431 213.329 48.7598 213.833C44.5575 214.34 40.0987 214.572 35.9883 214.214C32.086 213.874 28.8291 213.028 26.4287 211.659L25.96 211.378C22.9002 209.451 20.1987 206.105 17.8096 200.172C15.5507 194.563 13.7116 186.993 12.0635 176.895L11.7363 174.841C10.3169 165.716 8.88035 157.754 9.00781 150.39C9.12771 143.464 10.6441 137.527 14.75 132.292L15.1562 131.788C18.114 128.197 24.2617 121.871 32.1514 122.087Z" fill="#EDBD8F" stroke="black" stroke-width="10"/>
<path d="M54.2961 169.109C49.8961 168.709 34.4628 160.943 27.2961 157.109" stroke="black" stroke-width="5"/>
<path d="M48.4096 162.986C46.7875 167.096 34.9914 179.72 29.2961 185.518" stroke="black" stroke-width="5"/>
<rect x="91.7961" y="161.109" width="87" height="21" rx="3.5" fill="white" stroke="black" stroke-width="3"/>
<circle cx="134.796" cy="166.109" r="5.5" fill="black"/>
<path d="M293.756 109.879C289.621 108.004 232.854 108.379 226.839 109.879C220.823 111.38 222.703 120.384 226.839 118.133C230.974 115.882 289.245 115.507 293.756 118.133C298.267 120.759 297.891 111.755 293.756 109.879Z" fill="black" stroke="black"/>
<rect x="218.796" y="161.109" width="87" height="21" rx="3.5" fill="white" stroke="black" stroke-width="3"/>
<circle cx="261.796" cy="165.109" r="5.5" fill="black"/>
<path d="M167.756 109.879C163.621 108.004 106.854 108.379 100.839 109.879C94.8235 111.38 96.7031 120.384 100.839 118.133C104.974 115.882 163.245 115.507 167.756 118.133C172.267 120.759 171.891 111.755 167.756 109.879Z" fill="black" stroke="black"/>
<path d="M53 149.109V131.109H68.2039C68.2039 131.109 67.2488 171.048 68.2039 196.609C69.1589 222.171 78 223.109 78 223.109C78 223.109 91.8459 232.819 105 237.609C115.967 241.603 130.036 242.419 141.5 244.609C159.912 248.127 195 244.609 195 244.609V253.109L168.5 255.609C168.5 255.609 150.468 256.317 144 264.109C136.018 273.725 144 296.109 144 296.109C144 296.109 142.678 311.22 155 309.609C165.107 308.288 170.254 304.9 179.5 300.609C186.554 297.336 192.742 295.672 201.5 296.109C208.548 296.461 212.322 298.329 219 300.609C227.106 303.377 231.585 308.013 240 309.609C251.829 311.854 249 287.109 249 287.109C249 287.109 256.217 267.324 249 259.109C242.873 252.136 234.266 255.326 226 253.109C215.816 250.378 201.5 253.109 201.5 253.109V244.609H249C263.449 244.609 278.789 247.225 293 244.609C303.931 242.597 312.319 243.643 320 235.609C329.052 226.141 326 202.609 326 202.609L324 137.609H338C338 137.609 337.571 177.229 338 202.609C338.403 226.441 338 271.109 338 271.109C338 271.109 339.724 294.321 330.5 309.609C325.281 318.26 321.448 323.221 312.5 327.609C304.436 331.565 288.5 337.609 288.5 337.609C288.5 337.609 281.377 348.045 275 351.109C267.506 354.71 252.5 351.109 252.5 351.109C252.5 351.109 239.056 356.277 230 357.109C220.634 357.97 215.353 354.12 206 355.109C199.406 355.807 196.127 358.907 189.5 359.109C183.98 359.277 180.709 358.945 175.5 357.109C169.878 355.128 168.353 350.241 162.5 349.109C157.078 348.06 154.021 350.972 148.5 351.109C141.817 351.275 137.701 351.606 131.5 349.109C124.796 346.41 123.316 341.123 117 337.609C108.795 333.045 101.528 336.22 94 330.609C86.1831 324.783 75.7389 319.635 70.2039 311.609C60.9576 298.202 63.2848 297.015 58.0001 281.609C58.0001 281.609 53.9854 253.652 53 235.609C51.9991 217.282 53 188.609 53 188.609V149.109Z" fill="black"/>
<path d="M242 328.5C241.342 324.849 242.788 322.625 242 319C241.016 314.477 240.5 308 240.5 308L246 311C246 311 248.996 310.957 252 315.5C254.477 319.246 253.163 319.028 256 323C258.183 326.056 259.201 332.332 260.5 338.5C261.638 343.904 259.911 349.73 262.5 352.5C257.5 352.273 252.5 351 252.5 351C252.5 351 249.388 352.31 247.5 353C245.449 353.749 242 354.5 242 354.5C242 354.5 241.659 350.318 242 348C242.585 344.017 245.927 342.525 246 338.5C246.076 334.295 242.745 332.639 242 328.5Z" fill="white" fill-opacity="0.4"/>
<path d="M75 90.6093C73.3568 94.0036 72.7246 96.0425 71.5 99.6093C63.4315 123.11 66.794 138.536 66 163.609C65.1964 188.987 67.5 228.609 67.5 228.609H57L54.5 165.609C54.5 165.609 51.9929 129.21 54.5 106.109C56.4751 87.9114 63.5 60.1093 63.5 60.1093C63.5 60.1093 69 45.6093 77.5 38.1093C86 30.6093 96.6453 20.4782 111.5 13.6093C130.444 4.84948 143.7 6.20209 164 3.60929C188.626 0.46403 203.599 -0.1883 228.5 3.60929C248.545 6.66637 258.787 5.66765 276 13.6093C289.378 19.7814 301 31.1093 307 35.1093C313 39.1093 326 58.6093 329.5 68.1093C333 77.6093 335.5 87.6093 337 97.6093C338.5 107.609 337 160.109 337 160.109L336 225.109H326V156.609C326 143.109 323 107.109 320 97.6093C317 88.1093 314.5 84.6093 311 79.1093C307.5 73.6093 303.5 66.6093 298.5 62.6093C293.5 58.6093 289 56.1093 282 53.6093C275 51.1093 272.665 50.6854 266.5 50.6093C261.778 50.551 251.592 52.5055 247 53.6093C239.521 55.4072 237 58.1807 233 61.6093C229.5 64.6093 229 71.081 217 74.1093C210.519 75.745 202.182 76.8096 195.5 76.6093C190.173 76.4496 186.46 74.0602 181.5 72.1093C174.66 69.4187 172.925 64.4597 167 60.1093C161.543 56.1025 158.92 52.7565 152.5 50.6093C146.917 48.742 143.386 49.2066 137.5 49.1093C130.447 48.9927 126.259 48.59 119.5 50.6093C109.537 53.586 101.925 57.877 94 64.6093C83.9896 73.1132 80.7234 78.7869 75 90.6093Z" fill="black" stroke="black"/>
<rect x="217.296" y="139.609" width="84" height="63" rx="14" fill="url(#paint0_linear_805_3)" fill-opacity="0.8" stroke="black" stroke-width="12"/>
<rect x="91" y="139.609" width="84" height="63" rx="14" fill="url(#paint1_linear_805_3)" fill-opacity="0.8" stroke="black" stroke-width="12"/>
<rect x="175.296" y="163.609" width="41" height="18" fill="black"/>
</g>
<defs>
<filter id="filter0_d_805_3" x="0" y="0.5" width="391.593" height="366.648" filterUnits="userSpaceOnUse" color-interpolation-filters="sRGB">
<feFlood flood-opacity="0" result="BackgroundImageFix"/>
<feColorMatrix in="SourceAlpha" type="matrix" values="0 0 0 0 0 0 0 0 0 0 0 0 0 0 0 0 0 0 127 0" result="hardAlpha"/>
<feOffset dy="4"/>
<feGaussianBlur stdDeviation="2"/>
<feColorMatrix type="matrix" values="0 0 0 0 0 0 0 0 0 0 0 0 0 0 0 0 0 0 0.25 0"/>
<feBlend mode="normal" in2="BackgroundImageFix" result="effect1_dropShadow_805_3"/>
<feBlend mode="normal" in="SourceGraphic" in2="effect1_dropShadow_805_3" result="shape"/>
</filter>
<linearGradient id="paint0_linear_805_3" x1="259.296" y1="133.609" x2="259.296" y2="208.609" gradientUnits="userSpaceOnUse">
<stop stop-color="white" stop-opacity="0"/>
<stop offset="0.588542" stop-color="white"/>
<stop offset="1" stop-color="white" stop-opacity="0"/>
</linearGradient>
<linearGradient id="paint1_linear_805_3" x1="133" y1="133.609" x2="133" y2="208.609" gradientUnits="userSpaceOnUse">
<stop stop-color="white" stop-opacity="0"/>
<stop offset="0.588542" stop-color="white"/>
<stop offset="1" stop-color="white" stop-opacity="0"/>
</linearGradient>
</defs>
</svg>
